# Blender v2.78 (sub 0) OBJ File: 'Side Table with Draw.blend'
# www.blender.org
g Table_Draw
v 0.725738 0.235184 0.672635
v -0.725738 0.235184 0.672635
v -0.732224 0.028867 0.679122
v 0.732224 0.028867 0.679122
v 0.725738 0.235184 0.035354
v -0.725738 0.235184 0.035354
v -0.732224 0.028867 0.028867
v 0.732224 0.028867 0.028868
v 0.761092 0.235184 0.707989
v -0.761092 0.235184 0.707989
v -0.761092 0.000000 0.707989
v 0.761092 0.000000 0.707989
v 0.761092 0.235184 0.000000
v -0.761092 0.235184 -0.000000
v -0.761092 0.000000 -0.000000
v 0.761092 0.000000 0.000000
v -0.614089 0.076988 0.707989
v -0.330154 0.076988 0.707989
v -0.614089 0.153504 0.707989
v -0.330154 0.153504 0.707989
v 0.355007 0.076988 0.707989
v 0.638942 0.076988 0.707989
v 0.355007 0.153504 0.707989
v 0.638942 0.153504 0.707989
v -0.614089 0.153504 0.732989
v -0.614089 0.076988 0.732989
v -0.330154 0.076988 0.732989
v -0.330154 0.153504 0.732989
v 0.355007 0.153504 0.732989
v 0.355007 0.076988 0.732989
v 0.638942 0.076988 0.732989
v 0.638942 0.153504 0.732989
vt 0.2914 0.7421
vt 0.2187 0.7399
vt 0.2187 0.5309
vt 0.2914 0.5288
vt 0.6460 0.9880
vt 0.6460 0.5120
vt 0.7187 0.5098
vt 0.7187 0.9902
vt 0.5521 0.5120
vt 0.6248 0.5098
vt 0.6248 0.9902
vt 0.5521 0.9880
vt 0.5521 0.4902
vt 0.5521 0.0098
vt 0.7813 0.0098
vt 0.7813 0.4902
vt 0.3126 0.5309
vt 0.3854 0.5288
vt 0.3854 0.7421
vt 0.3126 0.7399
vt 0.1146 0.7610
vt 0.1146 0.5288
vt 0.1975 0.5288
vt 0.1975 0.7610
vt 0.9065 0.0098
vt 0.9894 0.0098
vt 0.9894 0.5091
vt 0.9065 0.5091
vt 0.8313 0.4690
vt 0.8582 0.4690
vt 0.8854 0.5091
vt 0.8025 0.5091
vt 0.5309 0.5091
vt 0.2813 0.5091
vt 0.2813 0.0098
vt 0.5309 0.0098
vt 0.0106 0.7610
vt 0.0106 0.5288
vt 0.0935 0.5288
vt 0.0935 0.7610
vt 0.0230 0.0214
vt 0.0230 0.4975
vt 0.0106 0.5091
vt 0.0106 0.0098
vt 0.2477 0.4975
vt 0.2477 0.0214
vt 0.2602 0.0098
vt 0.2602 0.5091
vt 0.4752 0.6416
vt 0.4752 0.6667
vt 0.4664 0.6667
vt 0.4664 0.6416
vt 0.7487 0.5098
vt 0.7487 0.6030
vt 0.7399 0.6030
vt 0.7399 0.5098
vt 0.8582 0.1512
vt 0.8854 0.0098
vt 0.8025 0.0098
vt 0.8313 0.1512
vt 0.8582 0.3759
vt 0.8313 0.0581
vt 0.8582 0.0581
vt 0.8313 0.3759
vt 0.4335 0.5288
vt 0.4335 0.6219
vt 0.4065 0.6219
vt 0.4065 0.5288
vt 0.4546 0.6219
vt 0.4546 0.5288
vt 0.4816 0.5288
vt 0.4816 0.6219
vt 0.4365 0.6667
vt 0.4365 0.6416
vt 0.4453 0.6416
vt 0.4453 0.6667
vt 0.4964 0.6667
vt 0.4964 0.6416
vt 0.5052 0.6416
vt 0.5052 0.6667
vt 0.4065 0.6667
vt 0.4065 0.6416
vt 0.4153 0.6416
vt 0.4153 0.6667
vt 0.7698 0.6030
vt 0.7698 0.5098
vt 0.7787 0.5098
vt 0.7787 0.6030
vt 0.7487 0.6226
vt 0.7487 0.7158
vt 0.7399 0.7158
vt 0.7399 0.6226
vt 0.5028 0.6219
vt 0.5028 0.5288
vt 0.5116 0.5288
vt 0.5116 0.6219
vn -0.9995 -0.0314 0.0000
vn -0.0000 -0.0314 0.9995
vn 0.0000 -0.0314 -0.9995
vn 0.0000 1.0000 0.0000
vn 0.9995 -0.0314 0.0000
vn 1.0000 0.0000 0.0000
vn 0.0000 0.0000 -1.0000
vn -0.0000 0.0000 1.0000
vn 0.0000 -1.0000 0.0000
vn -1.0000 0.0000 0.0000
s off
f 4/1/1 1/2/1 5/3/1 8/4/1
f 5/5/2 6/6/2 7/7/2 8/8/2
f 1/9/3 4/10/3 3/11/3 2/12/3
f 3/13/4 4/14/4 8/15/4 7/16/4
f 2/17/5 3/18/5 7/19/5 6/20/5
f 12/21/6 16/22/6 13/23/6 9/24/6
f 13/25/7 16/26/7 15/27/7 14/28/7
f 24/29/8 22/30/8 12/31/8 9/32/8
f 11/33/9 15/34/9 16/35/9 12/36/9
f 10/37/10 14/38/10 15/39/10 11/40/10
f 1/41/4 2/42/4 10/43/4 9/44/4
f 6/45/4 5/46/4 13/47/4 14/48/4
f 5/46/4 1/41/4 9/44/4 13/47/4
f 2/42/4 6/45/4 14/48/4 10/43/4
f 22/49/6 24/50/6 32/51/6 31/52/6
f 17/53/9 18/54/9 27/55/9 26/56/9
f 12/31/8 18/57/8 11/58/8
f 9/32/8 10/59/8 20/60/8
f 18/57/8 12/31/8 21/61/8
f 21/61/8 12/31/8 22/30/8
f 19/62/8 10/59/8 11/58/8 17/63/8
f 10/59/8 19/62/8 20/60/8
f 23/64/8 9/32/8 20/60/8
f 24/29/8 9/32/8 23/64/8
f 18/57/8 17/63/8 11/58/8
f 21/61/8 23/64/8 20/60/8 18/57/8
f 26/65/8 27/66/8 28/67/8 25/68/8
f 30/69/8 31/70/8 32/71/8 29/72/8
f 23/73/10 21/74/10 30/75/10 29/76/10
f 18/77/6 20/78/6 28/79/6 27/80/6
f 19/81/10 17/82/10 26/83/10 25/84/10
f 24/85/4 23/86/4 29/87/4 32/88/4
f 21/89/9 22/90/9 31/91/9 30/92/9
f 20/93/4 19/94/4 25/95/4 28/96/4
g Side_table_Side_Table
v 0.800000 0.000000 0.375000
v 0.768780 1.244287 0.375000
v -0.800000 0.000000 0.375000
v -0.768780 1.244287 0.375000
v 0.800000 1.275508 -0.375000
v 0.800000 0.000000 -0.375000
v -0.800000 0.000000 -0.375000
v -0.800000 1.275508 -0.375000
v 0.700000 0.000000 -0.375000
v 0.700000 0.000000 0.375000
v -0.700000 0.000000 -0.375000
v -0.700017 0.000000 0.375000
v -0.768780 1.006728 0.375000
v 0.768780 1.006728 0.375000
v 0.800000 1.275508 0.375000
v -0.800000 1.275508 0.375000
v -0.800000 0.975507 0.375000
v 0.800000 0.975507 0.375000
v -0.800000 0.975507 -0.375000
v 0.800000 0.975509 -0.375000
v -0.700017 0.000000 0.287500
v -0.700000 0.000000 -0.287500
v -0.800000 0.000000 -0.287500
v -0.800000 0.975507 -0.287500
v -0.800000 0.000000 0.287500
v -0.800000 0.975507 0.287500
v 0.700000 0.000000 0.287500
v 0.700000 0.000000 -0.287500
v 0.800000 0.000000 0.287500
v 0.800000 0.975508 -0.287500
v 0.800000 0.000000 -0.287500
v 0.800000 0.975508 0.287500
v -0.700017 0.775508 0.375000
v -0.500017 0.975508 0.375000
v -0.799950 0.975507 0.375000
v -0.500017 0.975508 0.287506
v -0.700017 0.775508 0.287500
v -0.799950 0.975507 0.287500
v 0.500000 0.975508 0.375000
v 0.700000 0.775508 0.375000
v 0.799950 0.975507 0.375000
v 0.700000 0.775508 0.287500
v 0.500000 0.975508 0.287500
v 0.799950 0.975508 0.287500
v 0.700000 0.775508 -0.375000
v 0.500000 0.975508 -0.375000
v 0.799950 0.975509 -0.375000
v 0.500000 0.975508 -0.287500
v 0.700000 0.775508 -0.287500
v 0.799950 0.975508 -0.287500
v -0.500000 0.975508 -0.375000
v -0.700000 0.775508 -0.375000
v -0.799950 0.975507 -0.375000
v -0.700000 0.775508 -0.287500
v -0.500000 0.975508 -0.287500
v -0.799950 0.975507 -0.287500
v 0.768780 1.244287 -0.340141
v -0.768780 1.244287 -0.340141
v -0.768780 1.006728 -0.340141
v 0.768780 1.006728 -0.340141
vt 0.0071 0.4129
vt 0.1858 0.4129
vt 0.1858 0.8038
vt 0.0071 0.8038
vt 0.6434 0.3190
vt 0.6434 0.2457
vt 0.6643 0.2457
vt 0.8013 0.2457
vt 0.8221 0.2457
vt 0.8221 0.3190
vt 0.6786 0.3727
vt 0.6994 0.3727
vt 0.6994 0.3971
vt 0.6786 0.3971
vt 0.5908 0.8032
vt 0.5908 0.9927
vt 0.5700 0.9927
vt 0.5700 0.8032
vt 0.6434 0.3336
vt 0.6643 0.3336
vt 0.6643 0.3580
vt 0.6434 0.3580
vt 0.6434 0.0073
vt 0.6643 0.0073
vt 0.5205 0.9779
vt 0.4639 0.9779
vt 0.4639 0.8032
vt 0.5205 0.8032
vt 0.9762 0.6024
vt 0.9553 0.6024
vt 0.9553 0.4129
vt 0.9762 0.4129
vt 0.6217 0.3906
vt 0.6217 0.0150
vt 0.6291 0.0073
vt 0.6291 0.3982
vt 0.3253 0.3982
vt 0.3253 0.3738
vt 0.5100 0.3738
vt 0.5577 0.3982
vt 0.5577 0.3982
vt 0.5651 0.3906
vt 0.5651 0.0150
vt 0.5577 0.0073
vt 0.9410 0.7245
vt 0.7624 0.7245
vt 0.7624 0.6512
vt 0.7832 0.6512
vt 0.9202 0.6512
vt 0.9410 0.6512
vt 0.7832 0.4129
vt 0.7624 0.4129
vt 0.9196 0.9775
vt 0.8958 0.9775
vt 0.8958 0.7880
vt 0.9196 0.7392
vt 0.9196 0.7392
vt 0.6994 0.3580
vt 0.6786 0.3580
vt 0.6786 0.3336
vt 0.6994 0.3336
vt 0.9787 0.2457
vt 0.9787 0.2457
vt 0.9549 0.1968
vt 0.9549 0.0073
vt 0.9787 0.0073
vt 0.3110 0.0073
vt 0.3110 0.3982
vt 0.2395 0.3982
vt 0.2395 0.3982
vt 0.2395 0.3249
vt 0.2395 0.0806
vt 0.2395 0.0073
vt 0.2395 0.0073
vt 0.2210 0.4862
vt 0.3579 0.4862
vt 0.3579 0.7305
vt 0.2210 0.7305
vt 0.2210 0.4129
vt 0.3579 0.4129
vt 0.5577 0.3249
vt 0.5577 0.0806
vt 0.5577 0.0073
vt 0.2210 0.4129
vt 0.3579 0.4129
vt 0.0071 0.3982
vt 0.0071 0.3738
vt 0.1919 0.3738
vt 0.9202 0.4129
vt 0.9410 0.4129
vt 0.8013 0.0073
vt 0.8221 0.0073
vt 0.8338 0.7392
vt 0.8338 0.9775
vt 0.8100 0.9775
vt 0.8100 0.7880
vt 0.8338 0.7392
vt 0.6434 0.3971
vt 0.6434 0.3727
vt 0.6643 0.3727
vt 0.6643 0.3971
vt 0.9073 0.2457
vt 0.3788 0.7794
vt 0.3579 0.7794
vt 0.3788 0.7305
vt 0.3253 0.0073
vt 0.5100 0.0318
vt 0.3253 0.0318
vt 0.7624 0.7392
vt 0.9720 0.9286
vt 0.9929 0.9286
vt 0.9929 0.9775
vt 0.9720 0.9775
vt 0.9929 0.7392
vt 0.9720 0.7392
vt 0.3579 0.8038
vt 0.2210 0.8038
vt 0.3579 0.8038
vt 0.2210 0.8038
vt 0.9577 0.9775
vt 0.9339 0.9775
vt 0.9339 0.7392
vt 0.9339 0.7392
vt 0.9577 0.7880
vt 0.6556 0.8723
vt 0.6051 0.8550
vt 0.6556 0.8032
vt 0.9762 0.6512
vt 0.9553 0.6512
vt 0.0071 0.0073
vt 0.1919 0.0318
vt 0.0071 0.0318
vt 0.8481 0.7392
vt 0.2210 0.7794
vt 0.2001 0.7794
vt 0.2001 0.7305
vt 0.5348 0.9927
vt 0.5348 0.8032
vt 0.5557 0.8032
vt 0.5557 0.9927
vt 0.3788 0.4862
vt 0.2001 0.4862
vt 0.8364 0.3830
vt 0.8364 0.0073
vt 0.8930 0.0073
vt 0.8930 0.3830
vt 0.5777 0.7885
vt 0.5777 0.4129
vt 0.7481 0.4129
vt 0.7481 0.7885
vt 0.3931 0.7885
vt 0.3931 0.4129
vt 0.5634 0.4129
vt 0.5634 0.7885
vt 0.3931 0.8032
vt 0.4497 0.8032
vt 0.4497 0.9779
vt 0.3931 0.9779
vn 0.0000 1.0000 0.0000
vn -1.0000 -0.0000 0.0000
vn 0.0000 -1.0000 0.0000
vn 1.0000 0.0000 0.0000
vn -0.0000 0.0000 1.0000
vn 0.0000 0.0000 -1.0000
vn 0.7071 -0.7071 0.0000
vn -0.7071 -0.7071 0.0000
s off
f 47/97/11 37/98/11 40/99/11 48/100/11
f 40/101/12 51/102/12 56/103/12 58/104/12 49/105/12 48/106/12
f 53/107/13 44/108/13 35/109/13 57/110/13
f 53/111/14 69/112/14 65/113/14 44/114/14
f 55/115/13 39/116/13 43/117/13 54/118/13
f 39/119/12 55/120/12 56/103/12 51/102/12
f 46/121/12 34/122/12 89/123/12 92/124/12
f 81/125/12 77/126/12 41/127/12 60/128/12
f 36/129/15 34/130/15 47/131/15 48/132/15
f 35/133/15 44/134/15 65/135/15 67/136/15 49/137/15
f 45/138/15 36/129/15 48/132/15 49/137/15
f 34/130/15 46/139/15 50/140/15 47/131/15
f 37/141/14 47/142/14 50/143/14 64/144/14 62/145/14 52/146/14
f 61/147/14 64/144/14 50/143/14 33/148/14
f 55/149/15 54/150/15 86/151/15 88/152/15 56/153/15
f 38/154/13 63/155/13 60/156/13 41/157/13
f 58/158/16 70/159/16 69/160/16 53/161/16 57/162/16
f 40/163/16 37/164/16 52/165/16 79/166/16 78/167/16 83/168/16 85/169/16 51/170/16
f 80/171/13 75/172/13 68/173/13 87/174/13
f 82/175/13 76/176/13 75/172/13 80/171/13
f 46/139/15 45/138/15 49/137/15 67/136/15 66/177/15 71/178/15 73/179/15 50/140/15
f 76/176/13 82/175/13 62/180/13 64/181/13
f 38/182/16 41/183/16 77/184/16 79/166/16 52/165/16
f 62/145/14 63/185/14 38/186/14 52/146/14
f 57/187/12 35/188/12 49/105/12 58/104/12
f 64/189/16 61/190/16 59/191/16 74/192/16 76/193/16
f 33/194/13 42/195/13 59/196/13 61/197/13
f 65/135/15 66/177/15 67/136/15
f 68/198/16 69/160/16 70/159/16
f 65/199/17 69/200/17 68/173/17 66/201/17
f 33/202/15 50/140/15 73/179/15 72/203/15 42/204/15
f 71/178/15 72/203/15 73/179/15
f 74/192/16 75/205/16 76/193/16
f 74/206/18 72/207/18 71/208/18 75/209/18
f 42/210/12 72/207/12 74/206/12 59/211/12
f 87/174/13 68/173/13 70/212/13 88/213/13
f 88/213/13 70/212/13 58/214/13 56/215/13
f 60/216/15 63/217/15 62/218/15 82/219/15 81/220/15
f 77/184/16 78/167/16 79/166/16
f 81/221/15 62/222/15 80/223/15
f 77/126/18 81/125/18 80/224/18 78/225/18
f 39/226/16 51/170/16 85/169/16 84/227/16 43/228/16
f 83/168/16 84/227/16 85/169/16
f 87/229/15 88/152/15 86/151/15
f 86/230/17 84/231/17 83/232/17 87/174/17
f 86/233/14 54/234/14 43/235/14 84/236/14
f 71/237/13 66/201/13 68/173/13 75/172/13
f 78/238/13 80/171/13 87/174/13 83/232/13
f 89/239/15 90/240/15 91/241/15 92/242/15
f 34/243/13 36/244/13 90/245/13 89/246/13
f 45/247/11 46/248/11 92/249/11 91/250/11
f 36/251/14 45/252/14 91/253/14 90/254/14
