# Blender v2.78 (sub 0) OBJ File: 'Staircase.blend'
# www.blender.org
g Stairs_Cube.003
v -1.500000 0.000000 -1.000000
v 1.500000 0.000000 -1.000000
v -1.500000 4.000000 -6.000000
v 1.500000 4.000000 -6.000000
v 1.500000 0.444444 -1.555556
v 1.500000 0.888889 -2.111111
v 1.500000 1.333333 -2.666667
v 1.500000 1.777778 -3.222222
v 1.500000 2.222222 -3.777778
v 1.500000 2.666667 -4.333333
v 1.500000 3.111111 -4.888889
v 1.500000 3.555556 -5.444445
v -1.500000 0.444444 -1.555556
v -1.500000 0.888889 -2.111111
v -1.500000 1.333333 -2.666667
v -1.500000 1.777778 -3.222222
v -1.500000 2.222222 -3.777778
v -1.500000 2.666667 -4.333333
v -1.500000 3.111111 -4.888889
v -1.500000 3.555556 -5.444445
v -1.500000 0.000000 -1.000000
v 1.500000 0.000000 -1.000000
v -1.500000 0.444444 -1.000000
v 1.500000 0.444444 -1.000000
v 1.500000 0.888889 -1.555556
v -1.500000 0.888889 -1.555556
v 1.500000 1.333333 -2.111111
v -1.500000 1.333333 -2.111111
v 1.500000 1.777778 -2.666667
v -1.500000 1.777778 -2.666667
v 1.500000 2.222222 -3.222222
v -1.500000 2.222222 -3.222222
v 1.500000 2.666667 -3.777778
v -1.500000 2.666667 -3.777778
v 1.500000 3.111111 -4.333333
v -1.500000 3.111111 -4.333333
v 1.500000 3.111111 -4.333333
v -1.500000 3.111111 -4.333333
v 1.500000 3.555556 -4.888889
v -1.500000 3.555556 -4.888889
v 1.500000 4.000000 -5.444445
v -1.500000 4.000000 -5.444445
vt 0.0000 0.0000
vt 0.0000 0.0000
vt 0.0000 0.0000
vt 0.0000 0.0000
vt 0.3127 0.5049
vt 0.3806 0.5049
vt 0.3806 0.9951
vt 0.3127 0.9951
vt 0.4746 0.4951
vt 0.4746 0.0049
vt 0.5594 0.0049
vt 0.5594 0.4951
vt 0.7565 0.0049
vt 0.8414 0.0049
vt 0.8414 0.4951
vt 0.7565 0.4951
vt 0.6534 0.0049
vt 0.6534 0.4951
vt 0.5685 0.4951
vt 0.5685 0.0049
vt 0.2866 0.4951
vt 0.2866 0.0049
vt 0.3714 0.0049
vt 0.3714 0.4951
vt 0.3806 0.4951
vt 0.3806 0.0049
vt 0.4654 0.0049
vt 0.4654 0.4951
vt 0.2774 0.4951
vt 0.1926 0.4951
vt 0.1926 0.0049
vt 0.2774 0.0049
vt 0.0000 0.0000
vt 0.0000 0.0000
vt 0.0000 0.0000
vt 0.0000 0.0000
vt 0.0894 0.0049
vt 0.0894 0.4951
vt 0.0046 0.4951
vt 0.0046 0.0049
vt 0.0986 0.4951
vt 0.0986 0.0049
vt 0.1834 0.0049
vt 0.1834 0.4951
vt 0.6625 0.4951
vt 0.6625 0.0049
vt 0.7474 0.0049
vt 0.7474 0.4951
vt 0.3035 0.9951
vt 0.2357 0.9951
vt 0.2357 0.5049
vt 0.3035 0.5049
vt 0.9954 0.0049
vt 0.9954 0.0957
vt 0.9276 0.0957
vt 0.6534 0.7472
vt 0.6004 0.7018
vt 0.6534 0.6310
vt 0.9939 0.5957
vt 0.9260 0.5957
vt 0.9260 0.5049
vt 0.1495 0.9951
vt 0.0816 0.9951
vt 0.0816 0.5049
vt 0.1495 0.5049
vt 0.8547 0.7472
vt 0.8017 0.6763
vt 0.8017 0.6763
vt 0.8547 0.6310
vt 0.8547 0.8733
vt 0.8017 0.8024
vt 0.8547 0.7570
vt 0.8547 0.6212
vt 0.8017 0.5503
vt 0.8547 0.5049
vt 0.7396 0.9738
vt 0.8074 0.8831
vt 0.8074 0.9738
vt 0.7926 0.6212
vt 0.7396 0.5503
vt 0.7926 0.5049
vt 0.8936 0.9738
vt 0.9615 0.8831
vt 0.9615 0.9738
vt 0.8639 0.8223
vt 0.9317 0.7315
vt 0.9317 0.8223
vt 0.8639 0.8223
vt 0.0046 0.9951
vt 0.0046 0.5049
vt 0.0724 0.5049
vt 0.0724 0.9951
vt 0.8505 0.4951
vt 0.8505 0.0049
vt 0.9184 0.0049
vt 0.9184 0.4951
vt 0.6625 0.9951
vt 0.6625 0.5049
vt 0.7304 0.5049
vt 0.7304 0.9951
vt 0.5346 0.9951
vt 0.4667 0.9951
vt 0.4667 0.5049
vt 0.5346 0.5049
vt 0.2265 0.9951
vt 0.1586 0.9951
vt 0.1586 0.5049
vt 0.2265 0.5049
vt 0.3897 0.9951
vt 0.3897 0.5049
vt 0.4576 0.5049
vt 0.4576 0.5049
vt 0.4576 0.9951
vt 0.4576 0.9951
vt 0.6534 0.6212
vt 0.6004 0.5503
vt 0.6534 0.5049
vt 0.8639 0.6310
vt 0.9317 0.7217
vt 0.9317 0.7217
vt 0.8639 0.7217
vt 0.7926 0.6310
vt 0.7926 0.7472
vt 0.7396 0.7018
vt 0.6534 0.8733
vt 0.6004 0.8279
vt 0.6534 0.7570
vt 0.7926 0.7570
vt 0.7926 0.8733
vt 0.7396 0.8279
vt 0.8845 0.9738
vt 0.8166 0.9738
vt 0.8166 0.8831
vt 0.6534 0.9738
vt 0.5855 0.9738
vt 0.5855 0.8831
vt 0.8639 0.5758
vt 0.8639 0.5758
vt 0.9169 0.5049
vt 0.9169 0.6212
vn 0.0000 0.0000 1.0000
vn 0.0000 1.0000 0.0000
vn 1.0000 0.0000 0.0000
vn -1.0000 0.0000 0.0000
s off
f 2/1/1 22/2/1 21/3/1 1/4/1
f 22/5/1 24/6/1 23/7/1 21/8/1
f 12/9/2 20/10/2 40/11/2 39/12/2
f 19/13/2 38/14/2 37/15/2 11/16/2
f 10/17/2 18/18/2 34/19/2 33/20/2
f 9/21/2 17/22/2 32/23/2 31/24/2
f 8/25/2 16/26/2 30/27/2 29/28/2
f 27/29/2 7/30/2 15/31/2 28/32/2
f 36/33/1 35/34/1 37/35/1 38/36/1
f 26/37/2 25/38/2 6/39/2 14/40/2
f 23/41/2 24/42/2 5/43/2 13/44/2
f 4/45/2 3/46/2 42/47/2 41/48/2
f 42/49/1 20/50/1 12/51/1 41/52/1
f 12/53/3 39/54/3 11/55/3
f 20/56/4 42/57/4 3/58/4
f 19/59/4 40/60/4 20/61/4
f 40/62/1 19/63/1 11/64/1 39/65/1
f 11/66/3 37/67/3 35/68/3 10/69/3
f 10/70/3 33/71/3 9/72/3
f 9/73/3 31/74/3 8/75/3
f 7/76/3 8/77/3 29/78/3
f 7/79/3 27/80/3 6/81/3
f 5/82/3 6/83/3 25/84/3
f 2/85/3 5/86/3 24/87/3 22/88/3
f 13/89/1 5/90/1 25/91/1 26/92/1
f 14/93/1 6/94/1 27/95/1 28/96/1
f 15/97/1 7/98/1 29/99/1 30/100/1
f 32/101/1 16/102/1 8/103/1 31/104/1
f 34/105/1 17/106/1 9/107/1 33/108/1
f 18/109/1 10/110/1 35/111/1 37/112/1 38/113/1 36/114/1
f 4/115/3 41/116/3 12/117/3
f 13/118/4 1/119/4 21/120/4 23/121/4
f 14/122/4 13/123/4 26/124/4
f 14/125/4 28/126/4 15/127/4
f 16/128/4 15/129/4 30/130/4
f 16/131/4 32/132/4 17/133/4
f 17/134/4 34/135/4 18/136/4
f 36/137/4 38/138/4 19/139/4 18/140/4
g Stair_walls_Cube.001
v -1.500000 0.000000 -1.000000
v 1.500000 0.000000 -1.000000
v -1.500000 7.000000 -6.000000
v -1.500000 4.000000 -7.000000
v 1.500000 4.000000 -7.000000
v 1.500000 7.000000 -6.000000
v -1.500000 3.000000 0.000000
v 1.500000 3.000000 0.000000
v -1.500000 4.000000 -6.000000
v 1.500000 4.000000 -6.000000
v -1.500000 0.000000 0.000000
v 1.500000 0.000000 0.000000
v -1.500000 7.000000 -7.000000
v 1.500000 7.000000 -7.000000
v -1.500000 3.000000 1.000000
v 1.500000 3.000000 1.000000
v -1.500000 0.000000 1.000000
v 1.500000 0.000000 1.000000
v -1.563964 -0.072533 -1.025443
v 1.563964 -0.072533 -1.025443
v -1.564730 7.072948 -5.977914
v -1.570708 3.929292 -7.000000
v 1.570708 3.929292 -7.000000
v 1.564730 7.072948 -5.977914
v -1.577850 3.060070 0.018186
v 1.577850 3.060070 0.018186
v -1.578973 3.942116 -6.020304
v 1.578973 3.942116 -6.020304
v -1.570708 -0.070708 0.000000
v 1.570708 -0.070708 0.000000
v -1.570708 7.070708 -7.000000
v 1.570708 7.070708 -7.000000
v -1.570708 3.070708 1.000000
v 1.570708 3.070708 1.000000
v -1.570708 -0.070708 1.000000
v 1.570708 -0.070708 1.000000
vt 0.8280 0.5008
vt 0.9935 0.5008
vt 0.9935 0.8306
vt 0.8280 0.8306
vt 0.9935 0.4592
vt 0.8280 0.4592
vt 0.7934 0.1230
vt 0.6770 0.4172
vt 0.6223 0.0911
vt 0.6496 0.0463
vt 0.5916 0.4172
vt 0.4478 0.4939
vt 0.4204 0.4491
vt 0.4752 0.1230
vt 0.4243 0.5855
vt 0.4243 0.5439
vt 0.5899 0.5439
vt 0.5899 0.5855
vt 0.9935 0.8722
vt 0.8280 0.8722
vt 0.8208 0.4939
vt 0.7934 0.5387
vt 0.6496 0.4619
vt 0.6189 0.0463
vt 0.5916 0.0015
vt 0.4478 0.0783
vt 0.5899 0.9569
vt 0.4243 0.9569
vt 0.6770 0.0015
vt 0.8208 0.0783
vt 0.6189 0.4619
vt 0.4752 0.5387
vt 0.9935 0.9137
vt 0.8280 0.9137
vt 0.5899 0.9985
vt 0.4243 0.9985
vt 0.9983 0.0419
vt 0.9975 0.3719
vt 0.8249 0.3719
vt 0.8241 0.0419
vt 0.8245 0.0015
vt 0.9979 0.0015
vt 0.1803 0.4183
vt 0.0299 0.4977
vt 0.0017 0.4519
vt 0.0567 0.1256
vt 0.3897 0.1258
vt 0.2661 0.4184
vt 0.2110 0.0921
vt 0.2393 0.0463
vt 0.8200 0.5842
vt 0.6473 0.5842
vt 0.6470 0.5418
vt 0.8204 0.5418
vt 0.9979 0.4145
vt 0.8245 0.4145
vt 0.2077 0.0472
vt 0.1796 0.0015
vt 0.0292 0.0821
vt 0.4171 0.4968
vt 0.3890 0.5425
vt 0.2386 0.4619
vt 0.8208 0.9558
vt 0.6466 0.9558
vt 0.2077 0.4619
vt 0.0574 0.5425
vt 0.2667 0.0015
vt 0.4171 0.0821
vt 0.9979 0.4561
vt 0.8245 0.4561
vt 0.8204 0.9963
vt 0.6470 0.9963
vt 0.5971 0.7001
vt 0.5971 0.5454
vt 0.5994 0.5418
vt 0.5994 0.7037
vt 0.4204 0.5418
vt 0.5938 0.5418
vt 0.6123 0.5439
vt 0.6123 0.6353
vt 0.6083 0.6375
vt 0.6083 0.5418
vt 0.6394 0.6353
vt 0.6394 0.5439
vt 0.6433 0.5418
vt 0.6433 0.6375
vt 0.6322 0.6353
vt 0.6322 0.5439
vt 0.6361 0.5418
vt 0.6361 0.6375
vt 0.6250 0.6353
vt 0.6250 0.5439
vt 0.6289 0.5418
vt 0.6289 0.6375
vt 0.6050 0.5454
vt 0.6050 0.7001
vt 0.6027 0.7037
vt 0.6027 0.5418
vt 0.9974 0.9159
vt 0.8241 0.9159
vn 0.0000 0.7809 0.6247
vn 0.0000 1.0000 0.0000
vn -1.0000 0.0000 0.0000
vn 1.0000 0.0000 0.0000
vn 0.0000 -1.0000 0.0000
vn 0.0000 -0.8321 -0.5547
vn 0.0000 -0.7794 -0.6265
vn 0.0000 -0.9999 0.0131
vn 1.0000 -0.0040 -0.0013
vn -1.0000 -0.0040 -0.0013
vn 0.0000 1.0000 -0.0022
vn 0.0000 -1.0000 0.0018
vn 1.0000 0.0045 0.0008
vn 1.0000 0.0000 -0.0084
vn 1.0000 0.0045 0.0058
vn -1.0000 0.0045 0.0008
vn -1.0000 0.0000 -0.0084
vn -1.0000 0.0045 0.0058
vn 0.0000 0.8311 0.5562
vn 1.0000 -0.0011 0.0036
vn -1.0000 -0.0011 0.0036
vn 0.0000 0.9999 -0.0108
vn 0.0000 0.0000 -1.0000
vn 0.0000 0.0000 1.0000
s off
f 52/141/5 51/142/5 43/143/5 44/144/5
f 46/145/6 51/142/6 52/141/6 47/146/6
f 50/147/7 52/148/7 44/149/7 54/150/7
f 49/151/8 53/152/8 43/153/8 51/154/8
f 45/155/9 55/156/9 56/157/9 48/158/9
f 43/143/6 53/159/6 54/160/6 44/144/6
f 52/148/7 50/147/7 48/161/7
f 56/162/7 47/163/7 52/148/7
f 56/162/7 52/148/7 48/161/7
f 51/154/8 45/164/8 49/151/8
f 55/165/8 51/154/8 46/166/8
f 55/165/8 45/164/8 51/154/8
f 45/155/10 48/158/10 50/167/10 49/168/10
f 50/147/7 54/150/7 60/169/7 58/170/7
f 53/152/8 49/151/8 57/171/8 59/172/8
f 54/160/6 53/159/6 59/173/6 60/174/6
f 49/168/9 50/167/9 58/175/9 57/176/9
f 70/177/11 62/178/11 61/179/11 69/180/11
f 64/181/12 65/182/12 70/177/12 69/180/12
f 68/183/13 72/184/13 62/185/13 70/186/13
f 67/187/14 69/188/14 61/189/14 71/190/14
f 63/191/15 66/192/15 74/193/15 73/194/15
f 61/179/16 62/178/16 72/195/16 71/196/16
f 70/186/17 66/197/17 68/183/17
f 74/198/18 70/186/18 65/199/18
f 74/198/19 66/197/19 70/186/19
f 69/188/20 67/187/20 63/200/20
f 73/201/21 64/202/21 69/188/21
f 73/201/22 69/188/22 63/200/22
f 63/191/23 67/203/23 68/204/23 66/192/23
f 68/183/24 76/205/24 78/206/24 72/184/24
f 71/190/25 77/207/25 75/208/25 67/187/25
f 72/195/9 78/209/9 77/210/9 71/196/9
f 67/203/26 75/211/26 76/212/26 68/204/26
f 46/213/27 47/214/27 65/215/27 64/216/27
f 56/157/27 55/156/27 73/217/27 74/218/27
f 47/219/27 56/220/27 74/221/27 65/222/27
f 55/223/27 46/224/27 64/225/27 73/226/27
f 59/227/28 57/228/28 75/229/28 77/230/28
f 58/231/28 60/232/28 78/233/28 76/234/28
f 57/235/28 58/236/28 76/237/28 75/238/28
f 60/174/28 59/173/28 77/239/28 78/240/28
