# Blender v2.78 (sub 0) OBJ File: 'Table.blend'
# www.blender.org
o Plane
v -0.987347 0.400000 -0.500000
v 1.012653 0.400000 -0.500000
v -0.987347 0.400000 0.500000
v 1.012653 0.400000 0.500000
v -0.611713 0.400000 0.137079
v -0.656386 0.400000 0.145965
v -0.694258 0.400000 0.171270
v -0.719563 0.400000 0.209142
v -0.728449 0.400000 0.253815
v -0.719563 0.400000 0.298488
v -0.694258 0.400000 0.336360
v -0.656386 0.400000 0.361665
v -0.611713 0.400000 0.370551
v -0.567040 0.400000 0.361665
v -0.529168 0.400000 0.336360
v -0.503863 0.400000 0.298488
v -0.494977 0.400000 0.253815
v -0.503863 0.400000 0.209142
v -0.529168 0.400000 0.171270
v -0.567040 0.400000 0.145965
v -0.611713 0.400000 -0.370551
v -0.656386 0.400000 -0.361665
v -0.694258 0.400000 -0.336360
v -0.719563 0.400000 -0.298488
v -0.728449 0.400000 -0.253815
v -0.719563 0.400000 -0.209142
v -0.694258 0.400000 -0.171270
v -0.656386 0.400000 -0.145965
v -0.611713 0.400000 -0.137079
v -0.567040 0.400000 -0.145965
v -0.529168 0.400000 -0.171270
v -0.503863 0.400000 -0.209142
v -0.494977 0.400000 -0.253815
v -0.503863 0.400000 -0.298488
v -0.529168 0.400000 -0.336360
v -0.567040 0.400000 -0.361665
v 0.637018 0.400000 -0.370551
v 0.592345 0.400000 -0.361665
v 0.554473 0.400000 -0.336360
v 0.529168 0.400000 -0.298488
v 0.520282 0.400000 -0.253815
v 0.529168 0.400000 -0.209142
v 0.554473 0.400000 -0.171270
v 0.592345 0.400000 -0.145965
v 0.637018 0.400000 -0.137079
v 0.681691 0.400000 -0.145965
v 0.719563 0.400000 -0.171270
v 0.744868 0.400000 -0.209142
v 0.753754 0.400000 -0.253815
v 0.744868 0.400000 -0.298488
v 0.719563 0.400000 -0.336360
v 0.681691 0.400000 -0.361665
v 0.637018 0.400000 0.137079
v 0.592345 0.400000 0.145965
v 0.554473 0.400000 0.171270
v 0.529168 0.400000 0.209142
v 0.520282 0.400000 0.253815
v 0.529168 0.400000 0.298488
v 0.554473 0.400000 0.336360
v 0.592345 0.400000 0.361665
v 0.637018 0.400000 0.370551
v 0.681691 0.400000 0.361665
v 0.719563 0.400000 0.336360
v 0.744868 0.400000 0.298488
v 0.753754 0.400000 0.253815
v 0.744868 0.400000 0.209142
v 0.719563 0.400000 0.171270
v 0.681691 0.400000 0.145965
v -0.987347 0.500000 -0.500000
v 1.012653 0.500000 -0.500000
v -0.987347 0.500000 0.500000
v 1.012653 0.500000 0.500000
v -0.656386 0.000000 0.145965
v -0.611713 0.000000 0.137079
v -0.694258 0.000000 0.171270
v -0.719563 0.000000 0.209142
v -0.728449 0.000000 0.253815
v -0.719563 0.000000 0.298488
v -0.694258 0.000000 0.336360
v -0.656386 0.000000 0.361665
v -0.611713 0.000000 0.370551
v -0.567040 0.000000 0.361665
v -0.529168 0.000000 0.336360
v -0.503863 0.000000 0.298488
v -0.494977 0.000000 0.253815
v -0.503863 0.000000 0.209142
v -0.529168 0.000000 0.171270
v -0.567040 0.000000 0.145965
v -0.656386 0.000000 -0.361665
v -0.611713 0.000000 -0.370551
v -0.694258 0.000000 -0.336360
v -0.719563 0.000000 -0.298488
v -0.728449 0.000000 -0.253815
v -0.719563 0.000000 -0.209142
v -0.694258 0.000000 -0.171270
v -0.656386 0.000000 -0.145965
v -0.611713 0.000000 -0.137079
v -0.567040 0.000000 -0.145965
v -0.529168 0.000000 -0.171270
v -0.503863 0.000000 -0.209142
v -0.494977 0.000000 -0.253815
v -0.503863 0.000000 -0.298488
v -0.529168 0.000000 -0.336360
v -0.567040 0.000000 -0.361665
v 0.592345 0.000000 -0.361665
v 0.637018 0.000000 -0.370551
v 0.554473 0.000000 -0.336360
v 0.529168 0.000000 -0.298488
v 0.520282 0.000000 -0.253815
v 0.529168 0.000000 -0.209142
v 0.554473 0.000000 -0.171270
v 0.592345 0.000000 -0.145965
v 0.637018 0.000000 -0.137079
v 0.681691 0.000000 -0.145965
v 0.719563 0.000000 -0.171270
v 0.744868 0.000000 -0.209142
v 0.753754 0.000000 -0.253815
v 0.744868 0.000000 -0.298488
v 0.719563 0.000000 -0.336360
v 0.681691 0.000000 -0.361665
v 0.592345 0.000000 0.145965
v 0.637018 0.000000 0.137079
v 0.554473 0.000000 0.171270
v 0.529168 0.000000 0.209142
v 0.520282 0.000000 0.253815
v 0.529168 0.000000 0.298488
v 0.554473 0.000000 0.336360
v 0.592345 0.000000 0.361665
v 0.637018 0.000000 0.370551
v 0.681691 0.000000 0.361665
v 0.719563 0.000000 0.336360
v 0.744868 0.000000 0.298488
v 0.753754 0.000000 0.253815
v 0.744868 0.000000 0.209142
v 0.719563 0.000000 0.171270
v 0.681691 0.000000 0.145965
vt 0.7005 0.8864
vt 0.6856 0.8864
vt 0.6856 0.7440
vt 0.7005 0.7440
vt 0.2173 0.8864
vt 0.2023 0.8864
vt 0.2023 0.7440
vt 0.2173 0.7440
vt 0.9772 0.8749
vt 0.9623 0.8749
vt 0.9623 0.7325
vt 0.9772 0.7325
vt 0.6744 0.8864
vt 0.6744 0.7440
vt 0.7413 0.7227
vt 0.3866 0.7227
vt 0.3866 0.0107
vt 0.7413 0.0107
vt 0.8761 0.3067
vt 0.8761 0.0107
vt 0.9115 0.0107
vt 0.9115 0.3067
vt 0.7626 0.0107
vt 0.7980 0.0107
vt 0.7980 0.7111
vt 0.7626 0.7111
vt 0.8193 0.4062
vt 0.8548 0.4062
vt 0.8548 0.7022
vt 0.8193 0.7022
vt 0.8193 0.0107
vt 0.8548 0.0107
vt 0.3163 0.1285
vt 0.3073 0.1150
vt 0.2939 0.1060
vt 0.2780 0.1028
vt 0.3653 0.0107
vt 0.3194 0.1444
vt 0.0821 0.1060
vt 0.0687 0.1150
vt 0.0597 0.1285
vt 0.0566 0.1444
vt 0.0106 0.0107
vt 0.0980 0.1028
vt 0.0597 0.6049
vt 0.0687 0.6183
vt 0.0821 0.6273
vt 0.0980 0.6305
vt 0.0106 0.7227
vt 0.0566 0.5890
vt 0.2939 0.6273
vt 0.3073 0.6183
vt 0.3163 0.6049
vt 0.3194 0.5890
vt 0.3653 0.7227
vt 0.2780 0.6305
vt 0.1138 0.1060
vt 0.2780 0.1860
vt 0.0980 0.1860
vt 0.1138 0.1828
vt 0.2622 0.1828
vt 0.1272 0.1738
vt 0.2487 0.1738
vt 0.2622 0.1060
vt 0.1272 0.1150
vt 0.1362 0.1603
vt 0.1394 0.1444
vt 0.2398 0.1603
vt 0.2398 0.1285
vt 0.1362 0.1285
vt 0.2366 0.1444
vt 0.2487 0.1150
vt 0.1138 0.6273
vt 0.1272 0.6183
vt 0.2487 0.6183
vt 0.2622 0.6273
vt 0.2780 0.5474
vt 0.2622 0.5506
vt 0.0980 0.5474
vt 0.0597 0.1603
vt 0.1362 0.6049
vt 0.2398 0.6049
vt 0.1272 0.5596
vt 0.2487 0.5596
vt 0.2398 0.5731
vt 0.1362 0.5731
vt 0.1138 0.5506
vt 0.1394 0.5890
vt 0.2366 0.5890
vt 0.0687 0.1738
vt 0.0821 0.1828
vt 0.2939 0.5506
vt 0.2939 0.1828
vt 0.3073 0.1738
vt 0.3073 0.5596
vt 0.3163 0.5731
vt 0.3163 0.1603
vt 0.0597 0.5731
vt 0.0821 0.5506
vt 0.0687 0.5596
vt 0.1457 0.9078
vt 0.1618 0.9078
vt 0.1768 0.9140
vt 0.1882 0.9255
vt 0.1944 0.9405
vt 0.1944 0.9567
vt 0.1882 0.9716
vt 0.1768 0.9831
vt 0.1618 0.9893
vt 0.1457 0.9893
vt 0.1307 0.9831
vt 0.1193 0.9716
vt 0.1131 0.9567
vt 0.1131 0.9405
vt 0.1193 0.9255
vt 0.1307 0.9140
vt 0.7951 0.9777
vt 0.7802 0.9715
vt 0.7688 0.9601
vt 0.7626 0.9451
vt 0.7626 0.9289
vt 0.7688 0.9139
vt 0.7802 0.9024
vt 0.7951 0.8962
vt 0.8113 0.8962
vt 0.8262 0.9024
vt 0.8376 0.9139
vt 0.8438 0.9289
vt 0.8438 0.9451
vt 0.8376 0.9601
vt 0.8262 0.9715
vt 0.8113 0.9777
vt 0.0593 0.9893
vt 0.0432 0.9893
vt 0.0282 0.9831
vt 0.0168 0.9716
vt 0.0106 0.9567
vt 0.0106 0.9405
vt 0.0168 0.9255
vt 0.0282 0.9140
vt 0.0432 0.9078
vt 0.0593 0.9078
vt 0.0743 0.9140
vt 0.0857 0.9255
vt 0.0919 0.9405
vt 0.0919 0.9567
vt 0.0857 0.9716
vt 0.0743 0.9831
vt 0.8712 0.9601
vt 0.8651 0.9451
vt 0.8651 0.9289
vt 0.8712 0.9139
vt 0.8827 0.9024
vt 0.8976 0.8962
vt 0.9138 0.8962
vt 0.9287 0.9024
vt 0.9401 0.9139
vt 0.9463 0.9289
vt 0.9463 0.9451
vt 0.9401 0.9601
vt 0.9287 0.9715
vt 0.9138 0.9777
vt 0.8976 0.9777
vt 0.8827 0.9715
vt 0.2960 0.8864
vt 0.2810 0.8864
vt 0.2810 0.7440
vt 0.2960 0.7440
vt 0.2334 0.8864
vt 0.2334 0.7440
vt 0.7166 0.8864
vt 0.7166 0.7440
vt 0.3121 0.8864
vt 0.3121 0.7440
vt 0.2483 0.8864
vt 0.2483 0.7440
vt 0.3270 0.8864
vt 0.3270 0.7440
vt 0.2598 0.8864
vt 0.2598 0.7440
vt 0.3385 0.8864
vt 0.3385 0.7440
vt 0.8987 0.7325
vt 0.9099 0.7325
vt 0.9099 0.8749
vt 0.8987 0.8749
vt 0.1582 0.7440
vt 0.1696 0.7440
vt 0.1696 0.8864
vt 0.1582 0.8864
vt 0.8839 0.7325
vt 0.8839 0.8749
vt 0.1433 0.7440
vt 0.1433 0.8864
vt 0.8677 0.7325
vt 0.8677 0.8749
vt 0.1271 0.7440
vt 0.1271 0.8864
vt 0.9333 0.4704
vt 0.9183 0.4704
vt 0.9183 0.3280
vt 0.9333 0.3280
vt 0.1122 0.7440
vt 0.1122 0.8864
vt 0.9071 0.4918
vt 0.9221 0.4918
vt 0.9221 0.6342
vt 0.9071 0.6342
vt 0.1008 0.7440
vt 0.1008 0.8864
vt 0.8910 0.4918
vt 0.8910 0.6342
vt 0.6419 0.7440
vt 0.6531 0.7440
vt 0.6531 0.8864
vt 0.6419 0.8864
vt 0.8761 0.4918
vt 0.8761 0.6342
vt 0.6271 0.7440
vt 0.6271 0.8864
vt 0.5321 0.8864
vt 0.5172 0.8864
vt 0.5172 0.7440
vt 0.5321 0.7440
vt 0.6109 0.7440
vt 0.6109 0.8864
vt 0.5483 0.8864
vt 0.5483 0.7440
vt 0.7316 0.8864
vt 0.7316 0.7440
vt 0.5632 0.8864
vt 0.5632 0.7440
vt 0.9477 0.1531
vt 0.9328 0.1531
vt 0.9328 0.0107
vt 0.9477 0.0107
vt 0.5746 0.8864
vt 0.5746 0.7440
vt 0.9639 0.1531
vt 0.9639 0.0107
vt 0.8200 0.7325
vt 0.8314 0.7325
vt 0.8314 0.8749
vt 0.8200 0.8749
vt 0.9788 0.1531
vt 0.9788 0.0107
vt 0.8051 0.7325
vt 0.8051 0.8749
vt 0.4534 0.8864
vt 0.4385 0.8864
vt 0.4385 0.7440
vt 0.4534 0.7440
vt 0.7889 0.7325
vt 0.7889 0.8749
vt 0.8527 0.7325
vt 0.8527 0.8749
vt 0.4695 0.8864
vt 0.4695 0.7440
vt 0.7740 0.7325
vt 0.7740 0.8749
vt 0.9583 0.6342
vt 0.9434 0.6342
vt 0.9434 0.4918
vt 0.9583 0.4918
vt 0.4845 0.8864
vt 0.4845 0.7440
vt 0.7626 0.7325
vt 0.7626 0.8749
vt 0.9744 0.6342
vt 0.9744 0.4918
vt 0.4959 0.8864
vt 0.4959 0.7440
vt 0.8873 0.4704
vt 0.8761 0.4704
vt 0.8761 0.3280
vt 0.8873 0.3280
vt 0.9894 0.6342
vt 0.9894 0.4918
vt 0.0221 0.8864
vt 0.0106 0.8864
vt 0.0106 0.7440
vt 0.0221 0.7440
vt 0.9021 0.4704
vt 0.9021 0.3280
vt 0.3747 0.8864
vt 0.3598 0.8864
vt 0.3598 0.7440
vt 0.3747 0.7440
vt 0.0370 0.8864
vt 0.0370 0.7440
vt 0.3908 0.8864
vt 0.3908 0.7440
vt 0.0531 0.8864
vt 0.0531 0.7440
vt 0.5959 0.7440
vt 0.5959 0.8864
vt 0.4058 0.8864
vt 0.4058 0.7440
vt 0.0681 0.8864
vt 0.0681 0.7440
vt 0.9462 0.8749
vt 0.9312 0.8749
vt 0.9312 0.7325
vt 0.9462 0.7325
vt 0.4172 0.8864
vt 0.4172 0.7440
vt 0.0795 0.8864
vt 0.0795 0.7440
vt 0.1909 0.8864
vt 0.1909 0.7440
vn 0.5556 0.0000 -0.8315
vn 0.5556 0.0000 0.8315
vn -0.9808 0.0000 -0.1951
vn 0.8315 0.0000 -0.5556
vn 0.0000 1.0000 0.0000
vn -1.0000 0.0000 0.0000
vn 0.0000 0.0000 -1.0000
vn 1.0000 0.0000 0.0000
vn 0.0000 0.0000 1.0000
vn 0.0000 -1.0000 0.0000
vn -0.9808 0.0000 0.1951
vn 0.8315 0.0000 0.5556
vn 0.1951 0.0000 -0.9808
vn -0.8315 0.0000 0.5556
vn 0.9808 0.0000 0.1951
vn -0.5556 0.0000 0.8315
vn 0.9808 0.0000 -0.1951
vn -0.1951 0.0000 0.9808
vn 0.1951 0.0000 0.9808
vn -0.1951 0.0000 -0.9808
vn -0.5556 0.0000 -0.8315
vn -0.8315 0.0000 -0.5556
s off
f 68/1/1 67/2/1 135/3/1 136/4/1
f 15/5/2 14/6/2 82/7/2 83/8/2
f 41/9/3 40/10/3 108/11/3 109/12/3
f 67/2/4 66/13/4 134/14/4 135/3/4
f 69/15/5 71/16/5 72/17/5 70/18/5
f 71/19/6 69/20/6 1/21/6 3/22/6
f 70/23/7 2/24/7 1/25/7 69/26/7
f 72/27/8 4/28/8 2/29/8 70/30/8
f 72/27/9 71/31/9 3/32/9 4/28/9
f 62/33/10 63/34/10 64/35/10 65/36/10 4/37/10 61/38/10
f 50/39/10 51/40/10 52/41/10 37/42/10 2/43/10 49/44/10
f 22/45/10 23/46/10 24/47/10 25/48/10 1/49/10 21/50/10
f 10/51/10 11/52/10 12/53/10 13/54/10 3/55/10 9/56/10
f 4/37/10 48/57/10 2/43/10
f 57/58/10 41/59/10 42/60/10
f 56/61/10 43/62/10 55/63/10
f 43/62/10 56/61/10 42/60/10
f 4/37/10 66/64/10 48/57/10
f 56/61/10 57/58/10 42/60/10
f 66/64/10 47/65/10 48/57/10
f 44/66/10 45/67/10 54/68/10
f 43/62/10 44/66/10 54/68/10
f 48/57/10 49/44/10 2/43/10
f 68/69/10 46/70/10 47/65/10
f 55/63/10 43/62/10 54/68/10
f 54/68/10 45/67/10 53/71/10
f 53/71/10 45/67/10 68/69/10
f 45/67/10 46/70/10 68/69/10
f 67/72/10 68/69/10 47/65/10
f 67/72/10 47/65/10 66/64/10
f 65/36/10 66/64/10 4/37/10
f 25/48/10 26/73/10 1/49/10
f 27/74/10 7/75/10 8/76/10
f 17/77/10 18/78/10 33/79/10
f 27/74/10 8/76/10 26/73/10
f 33/79/10 37/42/10 38/80/10
f 28/81/10 6/82/10 27/74/10
f 31/83/10 19/84/10 20/85/10
f 31/83/10 18/78/10 19/84/10
f 6/82/10 7/75/10 27/74/10
f 30/86/10 31/83/10 20/85/10
f 8/76/10 3/55/10 26/73/10
f 18/78/10 32/87/10 33/79/10
f 6/82/10 29/88/10 5/89/10
f 5/89/10 29/88/10 20/85/10
f 29/88/10 30/86/10 20/85/10
f 18/78/10 31/83/10 32/87/10
f 28/81/10 29/88/10 6/82/10
f 3/55/10 8/76/10 9/56/10
f 26/73/10 3/55/10 1/49/10
f 33/79/10 38/80/10 39/90/10
f 33/79/10 39/90/10 40/91/10
f 33/79/10 40/91/10 41/59/10
f 17/77/10 33/79/10 41/59/10
f 17/77/10 41/59/10 57/58/10
f 16/92/10 17/77/10 57/58/10
f 16/92/10 57/58/10 58/93/10
f 16/92/10 58/93/10 59/94/10
f 15/95/10 16/92/10 59/94/10
f 14/96/10 15/95/10 59/94/10
f 14/96/10 59/94/10 60/97/10
f 60/97/10 3/55/10 14/96/10
f 3/55/10 13/54/10 14/96/10
f 60/97/10 61/38/10 4/37/10
f 3/55/10 60/97/10 4/37/10
f 37/42/10 36/98/10 2/43/10
f 33/79/10 34/99/10 37/42/10
f 34/99/10 35/100/10 37/42/10
f 35/100/10 36/98/10 37/42/10
f 36/98/10 1/49/10 2/43/10
f 36/98/10 21/50/10 1/49/10
f 73/101/10 74/102/10 88/103/10 87/104/10 86/105/10 85/106/10 84/107/10 83/108/10 82/109/10 81/110/10 80/111/10 79/112/10 78/113/10 77/114/10 76/115/10 75/116/10
f 89/117/10 90/118/10 104/119/10 103/120/10 102/121/10 101/122/10 100/123/10 99/124/10 98/125/10 97/126/10 96/127/10 95/128/10 94/129/10 93/130/10 92/131/10 91/132/10
f 105/133/10 106/134/10 120/135/10 119/136/10 118/137/10 117/138/10 116/139/10 115/140/10 114/141/10 113/142/10 112/143/10 111/144/10 110/145/10 109/146/10 108/147/10 107/148/10
f 121/149/10 122/150/10 136/151/10 135/152/10 134/153/10 133/154/10 132/155/10 131/156/10 130/157/10 129/158/10 128/159/10 127/160/10 126/161/10 125/162/10 124/163/10 123/164/10
f 42/165/11 41/166/11 109/167/11 110/168/11
f 16/169/12 15/5/12 83/8/12 84/170/12
f 53/171/13 68/1/13 136/4/13 122/172/13
f 43/173/14 42/165/14 110/168/14 111/174/14
f 17/175/15 16/169/15 84/170/15 85/176/15
f 44/177/16 43/173/16 111/174/16 112/178/16
f 18/179/17 17/175/17 85/176/17 86/180/17
f 45/181/18 44/177/18 112/178/18 113/182/18
f 19/183/4 18/184/4 86/185/4 87/186/4
f 46/187/19 45/188/19 113/189/19 114/190/19
f 20/191/1 19/183/1 87/186/1 88/192/1
f 47/193/2 46/187/2 114/190/2 115/194/2
f 5/195/13 20/191/13 88/192/13 74/196/13
f 48/197/12 47/193/12 115/194/12 116/198/12
f 22/199/20 21/200/20 90/201/20 89/202/20
f 49/203/15 48/197/15 116/198/15 117/204/15
f 23/205/21 22/206/21 89/207/21 91/208/21
f 50/209/17 49/203/17 117/204/17 118/210/17
f 24/211/22 23/205/22 91/208/22 92/212/22
f 51/213/4 50/214/4 118/215/4 119/216/4
f 25/217/3 24/211/3 92/212/3 93/218/3
f 52/219/1 51/213/1 119/216/1 120/220/1
f 26/221/11 25/222/11 93/223/11 94/224/11
f 37/225/13 52/219/13 120/220/13 106/226/13
f 27/227/14 26/221/14 94/224/14 95/228/14
f 54/229/20 53/171/20 122/172/20 121/230/20
f 28/231/16 27/227/16 95/228/16 96/232/16
f 55/233/21 54/234/21 121/235/21 123/236/21
f 29/237/18 28/231/18 96/232/18 97/238/18
f 56/239/22 55/233/22 123/236/22 124/240/22
f 30/241/19 29/242/19 97/243/19 98/244/19
f 57/245/3 56/239/3 124/240/3 125/246/3
f 31/247/2 30/241/2 98/244/2 99/248/2
f 58/249/11 57/250/11 125/251/11 126/252/11
f 32/253/12 31/247/12 99/248/12 100/254/12
f 6/255/20 5/195/20 74/196/20 73/256/20
f 59/257/14 58/249/14 126/252/14 127/258/14
f 33/259/15 32/253/15 100/254/15 101/260/15
f 7/261/21 6/262/21 73/263/21 75/264/21
f 60/265/16 59/257/16 127/258/16 128/266/16
f 34/267/17 33/259/17 101/260/17 102/268/17
f 8/269/22 7/261/22 75/264/22 76/270/22
f 61/271/18 60/265/18 128/266/18 129/272/18
f 35/273/4 34/274/4 102/275/4 103/276/4
f 9/277/3 8/269/3 76/270/3 77/278/3
f 62/279/19 61/280/19 129/281/19 130/282/19
f 36/283/1 35/273/1 103/276/1 104/284/1
f 10/285/11 9/286/11 77/287/11 78/288/11
f 63/289/2 62/279/2 130/282/2 131/290/2
f 21/200/13 36/283/13 104/284/13 90/201/13
f 11/291/14 10/285/14 78/288/14 79/292/14
f 64/293/12 63/289/12 131/290/12 132/294/12
f 38/295/20 37/225/20 106/226/20 105/296/20
f 12/297/16 11/291/16 79/292/16 80/298/16
f 65/299/15 64/293/15 132/294/15 133/300/15
f 39/301/21 38/302/21 105/303/21 107/304/21
f 13/305/18 12/297/18 80/298/18 81/306/18
f 66/307/17 65/299/17 133/300/17 134/308/17
f 40/10/22 39/301/22 107/304/22 108/11/22
f 14/6/19 13/309/19 81/310/19 82/7/19
