# Blender v2.78 (sub 0) OBJ File: 'testfloor.blend'
# www.blender.org
o Plane
v -4.000000 0.000000 4.000000
v 4.000000 0.000000 4.000000
v -4.000000 0.000000 -5.980931
v 4.000000 0.000000 -5.980931
v -3.317451 0.000000 -5.298382
v -3.317451 0.000000 3.317451
v 3.317451 0.000000 3.317451
v 3.317451 0.000000 -5.298382
v -1.885868 1.221580 0.271801
v -1.023360 1.221580 0.271801
v -4.000000 0.000000 2.320746
v 4.000000 0.000000 2.320746
v -1.023360 1.221580 -0.402957
v 4.000000 0.000000 -2.478888
v -1.885868 1.221580 -0.402957
v -4.000000 0.000000 -2.478888
v -3.317451 0.371580 -2.055897
v -3.317451 0.371580 1.924740
v 2.828421 0.871580 1.257716
v 2.828421 0.871580 -1.388873
v -2.300423 0.371580 0.686356
v -0.119775 0.371580 0.327823
v -0.119775 0.371580 -0.458979
v -2.300423 0.471580 -0.817513
v -2.300423 0.471580 0.686356
v -0.608805 0.471580 0.686356
v -0.608805 0.471580 -0.817513
v -2.129193 0.471580 -0.646282
v -2.129193 0.471580 0.515126
v -0.780035 0.471580 0.515126
v -0.780035 0.471580 -0.646283
v -2.129193 0.721580 -0.646282
v -2.129193 0.721580 0.515126
v -0.780035 0.721580 0.515126
v -0.780035 0.721580 -0.646283
v -1.885868 0.721580 -0.402957
v -1.885868 0.721580 0.271801
v -1.023360 0.721580 0.271801
v -1.023360 0.721580 -0.402957
v 3.317451 0.371580 1.924740
v 3.317451 0.371580 -2.055897
v -0.608805 0.371580 0.686356
v -0.608805 0.371580 -0.817513
v -2.300423 0.471580 -0.817513
v -2.300423 0.471580 -0.817513
v -2.300423 0.371580 -0.817513
vn -0.0000 0.9935 -0.1139
vn -0.2216 0.9737 -0.0536
vn 0.0000 1.0000 0.0000
vn 0.1727 0.9778 0.1183
vn 0.4781 0.8783 0.0000
vn -0.1727 0.9778 0.1183
vn 0.0000 0.9662 0.2578
vn 0.2216 0.9737 -0.0536
vn -0.4781 0.8783 0.0000
vn -0.1672 0.9859 0.0000
vn -0.0000 0.0000 -1.0000
vn 0.0000 0.0000 1.0000
vn 1.0000 0.0000 0.0000
vn -1.0000 0.0000 0.0000
vn 0.7149 0.6992 0.0000
vn -0.1995 0.8808 0.4294
vn -0.1995 0.8808 -0.4294
s off
f 17//1 41//1 8//1 5//1
f 17//2 5//2 3//2 16//2
f 7//3 6//3 1//3 2//3
f 40//4 7//4 2//4 12//4
f 5//3 8//3 4//3 3//3
f 41//5 40//5 12//5 14//5
f 6//6 18//6 11//6 1//6
f 6//7 7//7 40//7 18//7
f 8//8 41//8 14//8 4//8
f 18//9 17//9 16//9 11//9
f 9//3 10//3 13//3 15//3
f 17//3 46//3 43//3 41//3
f 42//3 21//3 18//3 40//3
f 23//10 22//10 19//10 20//10
f 46//11 45//11 24//11 27//11 43//11
f 26//12 25//12 21//12 42//12
f 27//13 26//13 42//13 43//13
f 21//14 25//14 45//14 46//14
f 29//3 28//3 24//3 25//3
f 30//3 29//3 25//3 26//3
f 31//3 30//3 26//3 27//3
f 28//3 31//3 27//3 24//3
f 33//14 32//14 28//14 29//14
f 34//12 33//12 29//12 30//12
f 35//13 34//13 30//13 31//13
f 32//11 35//11 31//11 28//11
f 37//3 36//3 32//3 33//3
f 38//3 37//3 33//3 34//3
f 39//3 38//3 34//3 35//3
f 36//3 39//3 35//3 32//3
f 9//14 15//14 36//14 37//14
f 10//12 9//12 37//12 38//12
f 13//13 10//13 38//13 39//13
f 15//11 13//11 39//11 36//11
f 20//15 19//15 40//15 41//15
f 22//3 23//3 43//3 42//3
f 19//16 22//16 42//16 40//16
f 23//17 20//17 41//17 43//17
f 17//3 18//3 21//3 46//3
l 24 44
l 44 45
