# Blender v2.79 (sub 0) OBJ File: 'Room exmple.blend'
# www.blender.org
g Outer_Corridor_With_Room_Cube.004
v -0.961991 -0.057195 0.499889
v -0.961991 2.578156 0.499889
v 0.904917 -0.057195 0.499889
v 0.904917 2.578156 0.499889
v 0.904917 -0.057195 -3.900111
v 0.904917 2.578619 -3.900111
v -0.961991 2.578156 -5.786583
v -0.961991 -0.057195 -5.786583
v 1.227277 -0.057195 -5.786583
v 1.227277 2.578619 -5.786583
v 1.227277 -0.057195 -3.900111
v 1.227277 2.578619 -3.900111
v 1.227277 -0.057195 -0.581043
v 7.485427 -0.057195 -0.581043
v 7.485427 2.678655 -0.581043
v 1.227277 2.678655 -0.581043
v 1.227277 -0.057195 -7.542989
v 7.485427 -0.057195 -7.542989
v 1.227277 2.678655 -7.542989
v 7.485427 2.678655 -7.542989
v 7.485427 -0.057077 -4.600459
v 7.485427 -0.057077 -3.602444
v 7.482570 2.101112 -4.593567
v 7.482572 2.099396 -3.594730
v 7.485427 -0.057077 -4.550459
v 7.485427 -0.057077 -3.652444
v 7.482570 2.051112 -4.543568
v 7.482572 2.049396 -3.644730
v 7.435427 -0.057077 -4.600459
v 7.432570 2.101112 -4.593567
v 7.432572 2.099396 -3.594730
v 7.435427 -0.057077 -3.602444
v 7.459388 -0.057077 -4.550459
v 7.435427 -0.057077 -4.574482
v 7.447407 -0.057077 -4.553678
v 7.438637 -0.057077 -4.562470
v 7.456532 2.051112 -4.543568
v 7.432570 2.075057 -4.567513
v 7.444551 2.054320 -4.546775
v 7.435781 2.063084 -4.555540
v 7.456533 2.049396 -3.644730
v 7.432572 2.073249 -3.620876
v 7.444552 2.052592 -3.641534
v 7.435782 2.061323 -3.632803
v 7.435427 -0.057077 -3.628678
v 7.459388 -0.057077 -3.652444
v 7.438637 -0.057077 -3.640561
v 7.447407 -0.057077 -3.649260
vt 0.636959 0.876589
vt 0.636959 0.438306
vt 0.798541 0.438309
vt 0.798535 0.623553
vt 0.671064 0.623985
vt 0.671165 0.686866
vt 0.798535 0.686382
vt 0.798541 0.876591
vt 1.000000 0.000002
vt 1.000000 0.277000
vt 0.844353 0.276998
vt 0.844326 0.000000
vt 0.954275 0.438306
vt 0.954275 0.834065
vt 0.798542 0.834065
vt 0.798541 0.438306
vt 0.452443 0.531799
vt 0.452443 0.927558
vt 0.323345 0.927566
vt 0.323345 0.808805
vt 0.342354 0.808804
vt 0.342352 0.531807
vt 0.471467 0.531799
vt 0.471467 0.697734
vt 0.452443 0.697736
vt 0.452443 0.531801
vt 0.475287 0.438306
vt 0.475287 0.000024
vt 0.844326 0.000000
vt 0.844326 0.438282
vt 0.161672 0.925267
vt 0.000000 0.925249
vt 0.000000 0.531799
vt 0.161672 0.531817
vt 0.161672 0.531799
vt 0.323345 0.531818
vt 0.323345 0.925257
vt 0.161672 0.925238
vt 0.798541 0.999986
vt 0.798541 0.834080
vt 0.927738 0.834065
vt 0.927738 1.000000
vt 0.474418 0.531804
vt 0.474418 0.667671
vt 0.471467 0.667667
vt 0.471467 0.531799
vt 0.455242 0.830348
vt 0.455241 0.697736
vt 0.456778 0.697738
vt 0.456779 0.830350
vt 0.474418 0.667671
vt 0.474418 0.803430
vt 0.471467 0.803434
vt 0.471467 0.667675
vt 0.460993 0.755072
vt 0.460993 0.698486
vt 0.462529 0.698486
vt 0.462529 0.755072
vt 0.844326 0.277000
vt 0.845866 0.278650
vt 0.845925 0.412695
vt 0.844375 0.412689
vt 0.458039 0.760617
vt 0.458039 0.697736
vt 0.460993 0.697736
vt 0.460993 0.760617
vt 0.903352 0.412889
vt 0.901816 0.412884
vt 0.901807 0.278726
vt 0.903352 0.277092
vt 0.453979 0.831210
vt 0.453980 0.698490
vt 0.454697 0.698287
vt 0.454696 0.831209
vt 0.455241 0.697736
vt 0.455241 0.831210
vt 0.901107 0.412888
vt 0.901097 0.279484
vt 0.463248 0.698285
vt 0.463248 0.755274
vt 0.463798 0.697736
vt 0.463798 0.755826
vt 0.846569 0.279410
vt 0.457494 0.697740
vt 0.457495 0.830553
vt 0.458039 0.697742
vt 0.458039 0.831105
vt 0.846628 0.412704
vt 0.452443 0.831212
vt 0.452444 0.698492
vt 0.301400 0.003148
vt 0.301400 0.000000
vt 0.475286 0.000000
vt 0.475287 0.393976
vt 0.371493 0.393976
vt 0.371493 0.531799
vt 0.000000 0.531799
vt 0.000000 0.414270
vt 0.260014 0.414270
vt 0.260014 0.393976
vt 0.063877 0.393976
vt 0.063877 0.000000
vt 0.242424 0.000000
vt 0.242424 0.003148
vt 0.243974 0.003148
vt 0.244676 0.002946
vt 0.245190 0.002394
vt 0.245378 0.001639
vt 0.245378 0.000000
vt 0.298446 0.000000
vt 0.298446 0.001639
vt 0.298636 0.002394
vt 0.299155 0.002946
vt 0.299865 0.003148
vt 0.481198 0.647255
vt 0.481198 0.766016
vt 0.636959 0.766016
vt 0.636959 0.876589
vt 0.475287 0.876589
vt 0.636959 0.438306
vt 0.636959 0.647255
vn -1.0000 0.0002 0.0000
vn -1.0000 0.0000 0.0000
vn 1.0000 0.0000 0.0000
vn 0.0002 -1.0000 -0.0000
vn 0.0000 0.0000 -1.0000
vn 0.0000 -1.0000 0.0000
vn 0.0000 0.0000 1.0000
vn 0.0000 0.0032 -1.0000
vn 0.0000 0.0037 -1.0000
vn 0.0000 -0.0036 1.0000
vn 0.0000 -1.0000 -0.0019
vn -1.0000 -0.0013 0.0007
vn 0.0000 1.0000 0.0017
vn -1.0000 -0.0013 -0.0007
vn -0.2595 -0.0035 0.9657
vn -0.7082 -0.0033 0.7060
vn -0.9663 -0.0021 0.2576
vn -0.2582 -0.9661 -0.0018
vn -0.7062 -0.7080 -0.0014
vn -0.9658 -0.2595 -0.0005
vn -0.2569 0.0032 -0.9664
vn -0.7045 0.0016 -0.7097
vn -0.9656 -0.0003 -0.2602
vn 0.0000 -0.0033 1.0000
vn -0.0000 1.0000 -0.0000
s off
f 15/1/1 20/2/1 18/3/1 21/4/1 23/5/1 24/6/1 22/7/1 14/8/1
f 5/9/2 3/10/2 4/11/2 6/12/2
f 1/13/3 8/14/3 7/15/3 2/16/3
f 2/17/4 7/18/4 10/19/4 12/20/4 6/21/4 4/22/4
f 5/23/5 6/24/5 12/25/5 11/26/5
f 16/27/6 19/28/6 20/29/6 15/30/6
f 13/31/5 16/32/5 15/33/5 14/34/5
f 18/35/7 20/36/7 19/37/7 17/38/7
f 7/39/7 8/40/7 9/41/7 10/42/7
f 23/43/8 21/44/8 29/45/8 30/46/8
f 28/47/9 26/48/9 46/49/9 41/50/9
f 22/51/10 24/52/10 31/53/10 32/54/10
f 27/55/11 28/56/11 41/57/11 37/58/11
f 31/59/12 42/60/12 45/61/12 32/62/12
f 24/63/13 23/64/13 30/65/13 31/66/13
f 29/67/14 34/68/14 38/69/14 30/70/14
f 30/70/2 38/69/2 42/60/2 31/59/2
f 33/71/15 37/72/15 39/73/15 35/74/15
f 35/74/16 39/73/16 40/75/16 36/76/16
f 36/77/17 40/78/17 38/69/17 34/68/17
f 37/58/18 41/57/18 43/79/18 39/80/18
f 39/80/19 43/79/19 44/81/19 40/82/19
f 40/78/20 44/83/20 42/60/20 38/69/20
f 41/50/21 46/49/21 48/84/21 43/85/21
f 43/85/22 48/84/22 47/86/22 44/87/22
f 44/83/23 47/88/23 45/61/23 42/60/23
f 25/89/24 27/90/24 37/72/24 33/71/24
f 29/91/25 21/92/25 18/93/25 17/94/25 9/95/25 8/96/25 1/97/25 3/98/25 5/99/25 11/100/25 13/101/25 14/102/25 22/103/25 32/104/25 45/105/25 47/106/25 48/107/25 46/108/25 26/109/25 25/110/25 33/111/25 35/112/25 36/113/25 34/114/25
f 12/115/3 10/116/3 9/117/3 17/118/3 19/119/3 16/27/3 13/120/3 11/121/3
